<svg width="55" height="55" viewBox="0 0 55 55" fill="none" xmlns="http://www.w3.org/2000/svg">
<g clip-path="url(#clip0_66_5871)">
<path d="M46.5314 46.5375C57.0455 36.0234 57.0455 18.9766 46.5314 8.46253C36.0173 -2.05158 18.9705 -2.05158 8.45642 8.46253C-2.05769 18.9766 -2.05769 36.0234 8.45642 46.5375C18.9705 57.0516 36.0173 57.0516 46.5314 46.5375Z" fill="#38BFF2"/>
<path d="M27.4996 48.698C39.2069 48.698 48.6975 39.2074 48.6975 27.5001C48.6975 15.7929 39.2069 6.30225 27.4996 6.30225C15.7924 6.30225 6.30176 15.7929 6.30176 27.5001C6.30176 39.2074 15.7924 48.698 27.4996 48.698Z" fill="white"/>
<path d="M27.5 0C12.3364 0 0 12.3364 0 27.5C0 42.6636 12.3364 55 27.5 55C42.6636 55 55 42.6636 55 27.5C55 12.3364 42.6636 0 27.5 0ZM27.5 53.8541C12.9684 53.8541 1.14587 42.0316 1.14587 27.5C1.14587 12.9684 12.9684 1.14587 27.5 1.14587C42.0316 1.14587 53.8541 12.9684 53.8541 27.5C53.8541 42.0316 42.0316 53.8541 27.5 53.8541Z" fill="#1A2E35"/>
<path d="M27.4999 5.729C15.4955 5.729 5.729 15.4955 5.729 27.4999C5.729 39.5043 15.4955 49.2707 27.4999 49.2707C39.5043 49.2707 49.2707 39.5043 49.2707 27.4999C49.2707 15.4955 39.5043 5.729 27.4999 5.729ZM27.4999 48.1249C16.1271 48.1249 6.87487 38.8726 6.87487 27.4999C6.87487 16.1271 16.1271 6.87487 27.4999 6.87487C38.8726 6.87487 48.1249 16.1271 48.1249 27.4999C48.1249 38.8726 38.8726 48.1249 27.4999 48.1249Z" fill="#1A2E35"/>
<path d="M29.794 15.1154H22.1745C22.1648 15.1149 22.1567 15.1099 22.1468 15.1099C21.8304 15.1099 21.5739 15.3664 21.5739 15.6827V15.6883V26.6436H19.442C19.1257 26.6436 18.8691 26.9002 18.8691 27.2165C18.8691 27.5329 19.1257 27.7894 19.442 27.7894H21.5739V30.2146H19.442C19.1257 30.2146 18.8691 30.4711 18.8691 30.7874C18.8691 31.1038 19.1257 31.3603 19.442 31.3603H21.5739V39.3171C21.5739 39.6334 21.8304 39.8899 22.1468 39.8899C22.4632 39.8899 22.7197 39.6334 22.7197 39.3171V31.3603H33.0582C33.3745 31.3603 33.6311 31.1038 33.6311 30.7874C33.6311 30.4711 33.3745 30.2146 33.0582 30.2146H22.7198V27.7894H23.6855H29.3928C32.9064 27.7894 35.8577 25.2298 36.1114 21.9621C36.1114 21.9618 36.1114 21.9618 36.1114 21.9618C36.4061 18.1634 33.4073 15.1154 29.794 15.1154ZM34.969 21.8735V21.8731C34.7615 24.5484 32.312 26.6436 29.3928 26.6436H23.6855H22.7198V16.2612H29.794C32.7528 16.2613 35.2111 18.7539 34.969 21.8735Z" fill="#1A2E35"/>
</g>
<defs>
<clipPath id="clip0_66_5871">
<rect width="55" height="55" fill="white"/>
</clipPath>
</defs>
</svg>
